<svg xmlns="http://www.w3.org/2000/svg" version="1.1" xmlns:xlink="http://www.w3.org/1999/xlink" xmlns:svgjs="http://svgjs.com/svgjs" width="1440" height="560" preserveAspectRatio="none" viewBox="0 0 1440 560"><g mask="url(&quot;#SvgjsMask1026&quot;)" fill="none"><rect width="1440" height="560" x="0" y="0" fill="rgba(235, 240, 246, 1)"></rect><path d="M1138.88 177.1L1171.9 177.1L1171.9 210.12L1138.88 210.12z" stroke="rgba(31, 141, 251, 1)"></path><path d="M742.47 173.66a23.59 23.59 0 1 0-25.94 39.41z" fill="rgba(233, 255, 0, 1)"></path><path d="M219.47 503.43L223.14 503.43L223.14 556.91L219.47 556.91z" stroke="rgba(233, 255, 0, 1)"></path><path d="M611.76 300.74 a20.82 20.82 0 1 0 41.64 0 a20.82 20.82 0 1 0 -41.64 0z" stroke="rgba(255, 0, 0, 1)"></path><path d="M77.16 420.88 a36.56 36.56 0 1 0 73.12 0 a36.56 36.56 0 1 0 -73.12 0z" fill="rgba(233, 255, 0, 1)"></path><path d="M116.93 59.91L165.29 59.91L165.29 63.4L116.93 63.4z" fill="rgba(31, 141, 251, 1)"></path><path d="M1289.58 333.04a50.18 50.18 0 1 0-52.63 85.45z" fill="rgba(233, 255, 0, 1)"></path><path d="M275.25 324.12a14.21 14.21 0 1 0 27.38-7.6z" fill="rgba(255, 0, 0, 1)"></path><path d="M1295.96 6.24 a53.18 53.18 0 1 0 106.36 0 a53.18 53.18 0 1 0 -106.36 0z" fill="rgba(31, 141, 251, 1)"></path><path d="M126.28 326.04a42.76 42.76 0 1 0-51.61-68.19z" fill="rgba(31, 141, 251, 1)"></path><path d="M1359.35 451.42a10.74 10.74 0 1 0 21.48-0.16z" stroke="rgba(31, 141, 251, 1)"></path><path d="M734.23 496.13 a42.15 42.15 0 1 0 84.3 0 a42.15 42.15 0 1 0 -84.3 0z" stroke="rgba(233, 255, 0, 1)"></path><path d="M91.43 500.06L107.82 500.06L107.82 516.45L91.43 516.45z" stroke="rgba(255, 0, 0, 1)"></path><path d="M791.46 431.54a4.82 4.82 0 1 0-8.61-4.33z" stroke="rgba(233, 255, 0, 1)"></path><path d="M741.15 350.65L753.16 350.65L753.16 405.08L741.15 405.08z" stroke="rgba(31, 141, 251, 1)"></path><path d="M440.97 52.42L463.69 52.42L463.69 74.11L440.97 74.11z" stroke="rgba(233, 255, 0, 1)"></path><path d="M1261.73 214.43a6.38 6.38 0 1 0-12.6 1.99z" fill="rgba(31, 141, 251, 1)"></path><path d="M70.56 153L77.91 153L77.91 179.23L70.56 179.23z" stroke="rgba(233, 255, 0, 1)"></path><path d="M1165.19 246.65L1215.47 246.65L1215.47 296.93L1165.19 296.93z" fill="rgba(31, 141, 251, 1)"></path><path d="M326.25 151.8a19.27 19.27 0 1 0 36.82 11.4z" stroke="rgba(31, 141, 251, 1)"></path><path d="M435.55 398.28L479.06 398.28L479.06 444.42L435.55 444.42z" fill="rgba(233, 255, 0, 1)"></path><path d="M662 322.65L690.54 322.65L690.54 322.88L662 322.88z" stroke="rgba(31, 141, 251, 1)"></path><path d="M1331.34 425.72L1333.34 425.72L1333.34 461L1331.34 461z" stroke="rgba(31, 141, 251, 1)"></path><path d="M35.4 557.64L66.36 557.64L66.36 603.2L35.4 603.2z" stroke="rgba(255, 0, 0, 1)"></path><path d="M1101.41 44.1L1148.15 44.1L1148.15 90.84L1101.41 90.84z" fill="rgba(255, 0, 0, 1)"></path><path d="M222.81 162.06L277.14 162.06L277.14 216.39L222.81 216.39z" stroke="rgba(31, 141, 251, 1)"></path><path d="M944.05 503.15L959.51 503.15L959.51 534.46L944.05 534.46z" stroke="rgba(31, 141, 251, 1)"></path><path d="M766.55 195.72L794.04 195.72L794.04 223.21L766.55 223.21z" fill="rgba(31, 141, 251, 1)"></path><path d="M305.66 378.2L342.1 378.2L342.1 414.64L305.66 414.64z" fill="rgba(255, 0, 0, 1)"></path><path d="M1407.43 159.32a33.79 33.79 0 1 0 39.35-54.94z" fill="rgba(233, 255, 0, 1)"></path><path d="M609.9 463.17L658.57 463.17L658.57 475.37L609.9 475.37z" stroke="rgba(255, 0, 0, 1)"></path><path d="M247.71 190.13L252.66 190.13L252.66 195.08L247.71 195.08z" fill="rgba(255, 0, 0, 1)"></path><path d="M1315.57 311.94L1321.52 311.94L1321.52 317.89L1315.57 317.89z" stroke="rgba(233, 255, 0, 1)"></path></g><defs><mask id="SvgjsMask1026"><rect width="1440" height="560" fill="#ffffff"></rect></mask></defs></svg>